<?xml version="1.0" encoding="UTF-8" standalone="no"?>
<!DOCTYPE svg PUBLIC "-//W3C//DTD SVG 1.1//EN"
 "http://www.w3.org/Graphics/SVG/1.1/DTD/svg11.dtd">
<!-- Generated by graphviz version 2.44.0 (20200408.0750)
 -->
<!-- Title: dependency&#45;cruiser output Pages: 1 -->
<svg width="542pt" height="459pt"
 viewBox="0.00 0.00 541.76 459.00" xmlns="http://www.w3.org/2000/svg" xmlns:xlink="http://www.w3.org/1999/xlink">
<g id="graph0" class="graph" transform="scale(1 1) rotate(0) translate(4 455)">
<title>dependency&#45;cruiser output</title>
<polygon fill="white" stroke="transparent" points="-4,4 -4,-455 537.76,-455 537.76,4 -4,4"/>
<g id="clust1" class="cluster">
<title>cluster_client</title>
<path fill="#ffffff" stroke="black" stroke-width="2" d="M20,-8C20,-8 513.76,-8 513.76,-8 519.76,-8 525.76,-14 525.76,-20 525.76,-20 525.76,-431 525.76,-431 525.76,-437 519.76,-443 513.76,-443 513.76,-443 20,-443 20,-443 14,-443 8,-437 8,-431 8,-431 8,-20 8,-20 8,-14 14,-8 20,-8"/>
<text text-anchor="middle" x="266.88" y="-430.9" font-family="Helvetica,sans-Serif" font-weight="bold" font-size="9.00">client</text>
</g>
<g id="clust2" class="cluster">
<title>cluster_client/src</title>
<path fill="#ffffff" stroke="black" stroke-width="2" d="M28,-16C28,-16 505.76,-16 505.76,-16 511.76,-16 517.76,-22 517.76,-28 517.76,-28 517.76,-404 517.76,-404 517.76,-410 511.76,-416 505.76,-416 505.76,-416 28,-416 28,-416 22,-416 16,-410 16,-404 16,-404 16,-28 16,-28 16,-22 22,-16 28,-16"/>
<text text-anchor="middle" x="266.88" y="-403.9" font-family="Helvetica,sans-Serif" font-weight="bold" font-size="9.00">src</text>
</g>
<g id="clust3" class="cluster">
<title>cluster_client/src/business&#45;logic</title>
<path fill="#ffffff" stroke="black" stroke-width="2" d="M318.51,-151C318.51,-151 390.01,-151 390.01,-151 396.01,-151 402.01,-157 402.01,-163 402.01,-163 402.01,-316 402.01,-316 402.01,-322 396.01,-328 390.01,-328 390.01,-328 318.51,-328 318.51,-328 312.51,-328 306.51,-322 306.51,-316 306.51,-316 306.51,-163 306.51,-163 306.51,-157 312.51,-151 318.51,-151"/>
<text text-anchor="middle" x="354.26" y="-315.9" font-family="Helvetica,sans-Serif" font-weight="bold" font-size="9.00">business&#45;logic</text>
</g>
<g id="clust4" class="cluster">
<title>cluster_client/src/data&#45;access</title>
<path fill="#ffffff" stroke="black" stroke-width="2" d="M432.75,-151C432.75,-151 481.26,-151 481.26,-151 487.26,-151 493.26,-157 493.26,-163 493.26,-163 493.26,-316 493.26,-316 493.26,-322 487.26,-328 481.26,-328 481.26,-328 432.75,-328 432.75,-328 426.75,-328 420.75,-322 420.75,-316 420.75,-316 420.75,-163 420.75,-163 420.75,-157 426.75,-151 432.75,-151"/>
<text text-anchor="middle" x="457.01" y="-315.9" font-family="Helvetica,sans-Serif" font-weight="bold" font-size="9.00">data&#45;access</text>
</g>
<g id="clust5" class="cluster">
<title>cluster_client/src/presentation</title>
<path fill="#ffffff" stroke="black" stroke-width="2" d="M36,-24C36,-24 497.76,-24 497.76,-24 503.76,-24 509.76,-30 509.76,-36 509.76,-36 509.76,-131 509.76,-131 509.76,-137 503.76,-143 497.76,-143 497.76,-143 36,-143 36,-143 30,-143 24,-137 24,-131 24,-131 24,-36 24,-36 24,-30 30,-24 36,-24"/>
<text text-anchor="middle" x="266.88" y="-130.9" font-family="Helvetica,sans-Serif" font-weight="bold" font-size="9.00">presentation</text>
</g>
<g id="clust6" class="cluster">
<title>cluster_client/src/presentation/components</title>
<path fill="#ffffff" stroke="black" stroke-width="2" d="M319.25,-32C319.25,-32 389.26,-32 389.26,-32 395.26,-32 401.26,-38 401.26,-44 401.26,-44 401.26,-104 401.26,-104 401.26,-110 395.26,-116 389.26,-116 389.26,-116 319.25,-116 319.25,-116 313.25,-116 307.25,-110 307.25,-104 307.25,-104 307.25,-44 307.25,-44 307.25,-38 313.25,-32 319.25,-32"/>
<text text-anchor="middle" x="354.26" y="-103.9" font-family="Helvetica,sans-Serif" font-weight="bold" font-size="9.00">components</text>
</g>
<g id="clust7" class="cluster">
<title>cluster_client/src/presentation/custom&#45;events</title>
<path fill="#ffffff" stroke="black" stroke-width="2" d="M424.25,-32C424.25,-32 489.76,-32 489.76,-32 495.76,-32 501.76,-38 501.76,-44 501.76,-44 501.76,-73 501.76,-73 501.76,-79 495.76,-85 489.76,-85 489.76,-85 424.25,-85 424.25,-85 418.25,-85 412.25,-79 412.25,-73 412.25,-73 412.25,-44 412.25,-44 412.25,-38 418.25,-32 424.25,-32"/>
<text text-anchor="middle" x="457.01" y="-72.9" font-family="Helvetica,sans-Serif" font-weight="bold" font-size="9.00">custom&#45;events</text>
</g>
<g id="clust8" class="cluster">
<title>cluster_client/src/presentation/handlers</title>
<path fill="#ffffff" stroke="black" stroke-width="2" d="M219.51,-32C219.51,-32 286.51,-32 286.51,-32 292.51,-32 298.51,-38 298.51,-44 298.51,-44 298.51,-104 298.51,-104 298.51,-110 292.51,-116 286.51,-116 286.51,-116 219.51,-116 219.51,-116 213.51,-116 207.51,-110 207.51,-104 207.51,-104 207.51,-44 207.51,-44 207.51,-38 213.51,-32 219.51,-32"/>
<text text-anchor="middle" x="253.01" y="-103.9" font-family="Helvetica,sans-Serif" font-weight="bold" font-size="9.00">handlers</text>
</g>
<g id="clust9" class="cluster">
<title>cluster_client/src/presentation/init</title>
<path fill="#ffffff" stroke="black" stroke-width="2" d="M44,-47C44,-47 90,-47 90,-47 96,-47 102,-53 102,-59 102,-59 102,-88 102,-88 102,-94 96,-100 90,-100 90,-100 44,-100 44,-100 38,-100 32,-94 32,-88 32,-88 32,-59 32,-59 32,-53 38,-47 44,-47"/>
<text text-anchor="middle" x="67" y="-87.9" font-family="Helvetica,sans-Serif" font-weight="bold" font-size="9.00">init</text>
</g>
<g id="clust10" class="cluster">
<title>cluster_client/src/presentation/listeners</title>
<path fill="#ffffff" stroke="black" stroke-width="2" d="M122,-32C122,-32 187.51,-32 187.51,-32 193.51,-32 199.51,-38 199.51,-44 199.51,-44 199.51,-104 199.51,-104 199.51,-110 193.51,-116 187.51,-116 187.51,-116 122,-116 122,-116 116,-116 110,-110 110,-104 110,-104 110,-44 110,-44 110,-38 116,-32 122,-32"/>
<text text-anchor="middle" x="154.75" y="-103.9" font-family="Helvetica,sans-Serif" font-weight="bold" font-size="9.00">listeners</text>
</g>
<g id="clust11" class="cluster">
<title>cluster_client/src/utils</title>
<path fill="#ffffff" stroke="black" stroke-width="2" d="M422.01,-336C422.01,-336 492.01,-336 492.01,-336 498.01,-336 504.01,-342 504.01,-348 504.01,-348 504.01,-377 504.01,-377 504.01,-383 498.01,-389 492.01,-389 492.01,-389 422.01,-389 422.01,-389 416.01,-389 410.01,-383 410.01,-377 410.01,-377 410.01,-348 410.01,-348 410.01,-342 416.01,-336 422.01,-336"/>
<text text-anchor="middle" x="457.01" y="-376.9" font-family="Helvetica,sans-Serif" font-weight="bold" font-size="9.00">utils</text>
</g>
<!-- client/src/business&#45;logic/add&#45;number.js -->
<g id="node1" class="node">
<title>client/src/business&#45;logic/add&#45;number.js</title>
<g id="a_node1"><a xlink:href="client/src/business-logic/add-number.js" xlink:title="add&#45;number.js">
<path fill="#ffffcc" stroke="black" d="M384.57,-270.3C384.57,-270.3 323.95,-270.3 323.95,-270.3 320.85,-270.3 317.75,-267.2 317.75,-264.1 317.75,-264.1 317.75,-257.9 317.75,-257.9 317.75,-254.8 320.85,-251.7 323.95,-251.7 323.95,-251.7 384.57,-251.7 384.57,-251.7 387.67,-251.7 390.77,-254.8 390.77,-257.9 390.77,-257.9 390.77,-264.1 390.77,-264.1 390.77,-267.2 387.67,-270.3 384.57,-270.3"/>
<text text-anchor="middle" x="354.26" y="-258.3" font-family="Helvetica,sans-Serif" font-size="9.00">add&#45;number.js</text>
</a>
</g>
</g>
<!-- client/src/data&#45;access/find.js -->
<g id="node2" class="node">
<title>client/src/data&#45;access/find.js</title>
<g id="a_node2"><a xlink:href="client/src/data-access/find.js" xlink:title="find.js">
<polygon fill="#ffffcc" stroke="black" points="484.01,-208.3 482.46,-210.37 471.6,-210.37 470.05,-208.3 430.01,-208.3 430.01,-189.7 484.01,-189.7 484.01,-208.3"/>
<text text-anchor="middle" x="457.01" y="-196.3" font-family="Helvetica,sans-Serif" font-size="9.00">find.js</text>
</a>
</g>
</g>
<!-- client/src/business&#45;logic/add&#45;number.js&#45;&gt;client/src/data&#45;access/find.js -->
<g id="edge1" class="edge">
<title>client/src/business&#45;logic/add&#45;number.js&#45;&gt;client/src/data&#45;access/find.js</title>
<path fill="none" stroke="#000000" stroke-width="2" stroke-opacity="0.200000" d="M391.21,-252.93C395.23,-250.86 398.96,-248.26 402.01,-245 411.42,-234.91 400.62,-225.11 410.01,-215 413.81,-210.9 418.71,-207.86 423.9,-205.59"/>
<polygon fill="#000000" fill-opacity="0.200000" stroke="#000000" stroke-width="2" stroke-opacity="0.200000" points="424.73,-207.52 429.6,-203.42 423.24,-203.59 424.73,-207.52"/>
</g>
<!-- client/src/data&#45;access/save.js -->
<g id="node3" class="node">
<title>client/src/data&#45;access/save.js</title>
<g id="a_node3"><a xlink:href="client/src/data-access/save.js" xlink:title="save.js">
<polygon fill="#ffffcc" stroke="black" points="484.01,-239.3 482.46,-241.37 471.6,-241.37 470.05,-239.3 430.01,-239.3 430.01,-220.7 484.01,-220.7 484.01,-239.3"/>
<text text-anchor="middle" x="457.01" y="-227.3" font-family="Helvetica,sans-Serif" font-size="9.00">save.js</text>
</a>
</g>
</g>
<!-- client/src/business&#45;logic/add&#45;number.js&#45;&gt;client/src/data&#45;access/save.js -->
<g id="edge2" class="edge">
<title>client/src/business&#45;logic/add&#45;number.js&#45;&gt;client/src/data&#45;access/save.js</title>
<path fill="none" stroke="#000000" stroke-width="2" stroke-opacity="0.200000" d="M385.76,-251.61C397.8,-247.91 411.65,-243.65 423.85,-239.89"/>
<polygon fill="#000000" fill-opacity="0.200000" stroke="#000000" stroke-width="2" stroke-opacity="0.200000" points="424.58,-241.87 429.7,-238.1 423.34,-237.85 424.58,-241.87"/>
</g>
<!-- client/src/business&#45;logic/get&#45;sorted.js -->
<g id="node4" class="node">
<title>client/src/business&#45;logic/get&#45;sorted.js</title>
<g id="a_node4"><a xlink:href="client/src/business-logic/get-sorted.js" xlink:title="get&#45;sorted.js">
<path fill="#ffffcc" stroke="black" d="M380.57,-239.3C380.57,-239.3 327.95,-239.3 327.95,-239.3 324.85,-239.3 321.75,-236.2 321.75,-233.1 321.75,-233.1 321.75,-226.9 321.75,-226.9 321.75,-223.8 324.85,-220.7 327.95,-220.7 327.95,-220.7 380.57,-220.7 380.57,-220.7 383.67,-220.7 386.77,-223.8 386.77,-226.9 386.77,-226.9 386.77,-233.1 386.77,-233.1 386.77,-236.2 383.67,-239.3 380.57,-239.3"/>
<text text-anchor="middle" x="354.26" y="-227.3" font-family="Helvetica,sans-Serif" font-size="9.00">get&#45;sorted.js</text>
</a>
</g>
</g>
<!-- client/src/business&#45;logic/get&#45;sorted.js&#45;&gt;client/src/data&#45;access/find.js -->
<g id="edge3" class="edge">
<title>client/src/business&#45;logic/get&#45;sorted.js&#45;&gt;client/src/data&#45;access/find.js</title>
<path fill="none" stroke="#000000" stroke-width="2" stroke-opacity="0.200000" d="M385.76,-220.61C397.8,-216.91 411.65,-212.65 423.85,-208.89"/>
<polygon fill="#000000" fill-opacity="0.200000" stroke="#000000" stroke-width="2" stroke-opacity="0.200000" points="424.58,-210.87 429.7,-207.1 423.34,-206.85 424.58,-210.87"/>
</g>
<!-- client/src/utils/sort&#45;numbers.js -->
<g id="node5" class="node">
<title>client/src/utils/sort&#45;numbers.js</title>
<g id="a_node5"><a xlink:href="client/src/utils/sort-numbers.js" xlink:title="sort&#45;numbers.js">
<path fill="#ffffcc" stroke="black" d="M489.8,-362.3C489.8,-362.3 424.21,-362.3 424.21,-362.3 421.11,-362.3 418.01,-359.2 418.01,-356.1 418.01,-356.1 418.01,-349.9 418.01,-349.9 418.01,-346.8 421.11,-343.7 424.21,-343.7 424.21,-343.7 489.8,-343.7 489.8,-343.7 492.9,-343.7 496.01,-346.8 496.01,-349.9 496.01,-349.9 496.01,-356.1 496.01,-356.1 496.01,-359.2 492.9,-362.3 489.8,-362.3"/>
<text text-anchor="middle" x="457.01" y="-350.3" font-family="Helvetica,sans-Serif" font-size="9.00">sort&#45;numbers.js</text>
</a>
</g>
</g>
<!-- client/src/business&#45;logic/get&#45;sorted.js&#45;&gt;client/src/utils/sort&#45;numbers.js -->
<g id="edge4" class="edge">
<title>client/src/business&#45;logic/get&#45;sorted.js&#45;&gt;client/src/utils/sort&#45;numbers.js</title>
<path fill="none" stroke="#000000" stroke-width="2" stroke-opacity="0.200000" d="M387.07,-235.4C392.81,-237.76 398.18,-241.15 402.01,-246 413.75,-260.9 399.15,-315.44 410.01,-331 412.58,-334.69 415.95,-337.79 419.7,-340.37"/>
<polygon fill="#000000" fill-opacity="0.200000" stroke="#000000" stroke-width="2" stroke-opacity="0.200000" points="418.78,-342.28 425,-343.6 420.96,-338.69 418.78,-342.28"/>
</g>
<!-- client/src/business&#45;logic/get.js -->
<g id="node6" class="node">
<title>client/src/business&#45;logic/get.js</title>
<g id="a_node6"><a xlink:href="client/src/business-logic/get.js" xlink:title="get.js">
<path fill="#ffffcc" stroke="black" d="M375.06,-208.3C375.06,-208.3 333.46,-208.3 333.46,-208.3 330.36,-208.3 327.26,-205.2 327.26,-202.1 327.26,-202.1 327.26,-195.9 327.26,-195.9 327.26,-192.8 330.36,-189.7 333.46,-189.7 333.46,-189.7 375.06,-189.7 375.06,-189.7 378.16,-189.7 381.26,-192.8 381.26,-195.9 381.26,-195.9 381.26,-202.1 381.26,-202.1 381.26,-205.2 378.16,-208.3 375.06,-208.3"/>
<text text-anchor="middle" x="354.26" y="-196.3" font-family="Helvetica,sans-Serif" font-size="9.00">get.js</text>
</a>
</g>
</g>
<!-- client/src/business&#45;logic/get.js&#45;&gt;client/src/data&#45;access/find.js -->
<g id="edge5" class="edge">
<title>client/src/business&#45;logic/get.js&#45;&gt;client/src/data&#45;access/find.js</title>
<path fill="none" stroke="#000000" stroke-width="2" stroke-opacity="0.200000" d="M381.46,-199C394.41,-199 410.14,-199 423.81,-199"/>
<polygon fill="#000000" fill-opacity="0.200000" stroke="#000000" stroke-width="2" stroke-opacity="0.200000" points="423.93,-201.1 429.93,-199 423.93,-196.9 423.93,-201.1"/>
</g>
<!-- client/src/business&#45;logic/initialize&#45;state.js -->
<g id="node7" class="node">
<title>client/src/business&#45;logic/initialize&#45;state.js</title>
<g id="a_node7"><a xlink:href="client/src/business-logic/initialize-state.js" xlink:title="initialize&#45;state.js">
<path fill="#ffffcc" stroke="black" d="M388.06,-177.3C388.06,-177.3 320.46,-177.3 320.46,-177.3 317.36,-177.3 314.26,-174.2 314.26,-171.1 314.26,-171.1 314.26,-164.9 314.26,-164.9 314.26,-161.8 317.36,-158.7 320.46,-158.7 320.46,-158.7 388.06,-158.7 388.06,-158.7 391.16,-158.7 394.26,-161.8 394.26,-164.9 394.26,-164.9 394.26,-171.1 394.26,-171.1 394.26,-174.2 391.16,-177.3 388.06,-177.3"/>
<text text-anchor="middle" x="354.26" y="-165.3" font-family="Helvetica,sans-Serif" font-size="9.00">initialize&#45;state.js</text>
</a>
</g>
</g>
<!-- client/src/data&#45;access/load.js -->
<g id="node8" class="node">
<title>client/src/data&#45;access/load.js</title>
<g id="a_node8"><a xlink:href="client/src/data-access/load.js" xlink:title="load.js">
<polygon fill="#ffffcc" stroke="black" points="484.01,-177.3 482.46,-179.37 471.6,-179.37 470.05,-177.3 430.01,-177.3 430.01,-158.7 484.01,-158.7 484.01,-177.3"/>
<text text-anchor="middle" x="457.01" y="-165.3" font-family="Helvetica,sans-Serif" font-size="9.00">load.js</text>
</a>
</g>
</g>
<!-- client/src/business&#45;logic/initialize&#45;state.js&#45;&gt;client/src/data&#45;access/load.js -->
<g id="edge6" class="edge">
<title>client/src/business&#45;logic/initialize&#45;state.js&#45;&gt;client/src/data&#45;access/load.js</title>
<path fill="none" stroke="#000000" stroke-width="2" stroke-opacity="0.200000" d="M394.21,-168C404.02,-168 414.44,-168 423.88,-168"/>
<polygon fill="#000000" fill-opacity="0.200000" stroke="#000000" stroke-width="2" stroke-opacity="0.200000" points="423.92,-170.1 429.92,-168 423.92,-165.9 423.92,-170.1"/>
</g>
<!-- client/src/business&#45;logic/set.js -->
<g id="node9" class="node">
<title>client/src/business&#45;logic/set.js</title>
<g id="a_node9"><a xlink:href="client/src/business-logic/set.js" xlink:title="set.js">
<path fill="#ffffcc" stroke="black" d="M375.06,-301.3C375.06,-301.3 333.46,-301.3 333.46,-301.3 330.36,-301.3 327.26,-298.2 327.26,-295.1 327.26,-295.1 327.26,-288.9 327.26,-288.9 327.26,-285.8 330.36,-282.7 333.46,-282.7 333.46,-282.7 375.06,-282.7 375.06,-282.7 378.16,-282.7 381.26,-285.8 381.26,-288.9 381.26,-288.9 381.26,-295.1 381.26,-295.1 381.26,-298.2 378.16,-301.3 375.06,-301.3"/>
<text text-anchor="middle" x="354.26" y="-289.3" font-family="Helvetica,sans-Serif" font-size="9.00">set.js</text>
</a>
</g>
</g>
<!-- client/src/business&#45;logic/set.js&#45;&gt;client/src/data&#45;access/save.js -->
<g id="edge9" class="edge">
<title>client/src/business&#45;logic/set.js&#45;&gt;client/src/data&#45;access/save.js</title>
<path fill="none" stroke="#000000" stroke-width="2" stroke-opacity="0.200000" d="M381.6,-287.82C389.07,-285.46 396.62,-281.77 402.01,-276 411.42,-265.91 400.62,-256.11 410.01,-246 413.81,-241.9 418.71,-238.86 423.9,-236.59"/>
<polygon fill="#000000" fill-opacity="0.200000" stroke="#000000" stroke-width="2" stroke-opacity="0.200000" points="424.73,-238.52 429.6,-234.42 423.24,-234.59 424.73,-238.52"/>
</g>
<!-- client/src/data&#45;access/has&#45;key.js -->
<g id="node10" class="node">
<title>client/src/data&#45;access/has&#45;key.js</title>
<g id="a_node10"><a xlink:href="client/src/data-access/has-key.js" xlink:title="has&#45;key.js">
<polygon fill="#ffffcc" stroke="black" points="485.01,-301.3 483.46,-303.37 472.61,-303.37 471.06,-301.3 429,-301.3 429,-282.7 485.01,-282.7 485.01,-301.3"/>
<text text-anchor="middle" x="457.01" y="-289.3" font-family="Helvetica,sans-Serif" font-size="9.00">has&#45;key.js</text>
</a>
</g>
</g>
<!-- client/src/business&#45;logic/set.js&#45;&gt;client/src/data&#45;access/has&#45;key.js -->
<g id="edge7" class="edge">
<title>client/src/business&#45;logic/set.js&#45;&gt;client/src/data&#45;access/has&#45;key.js</title>
<path fill="none" stroke="#000000" stroke-width="2" stroke-opacity="0.200000" d="M381.46,-292C394.1,-292 409.41,-292 422.85,-292"/>
<polygon fill="#000000" fill-opacity="0.200000" stroke="#000000" stroke-width="2" stroke-opacity="0.200000" points="422.88,-294.1 428.88,-292 422.88,-289.9 422.88,-294.1"/>
</g>
<!-- client/src/data&#45;access/insert.js -->
<g id="node11" class="node">
<title>client/src/data&#45;access/insert.js</title>
<g id="a_node11"><a xlink:href="client/src/data-access/insert.js" xlink:title="insert.js">
<polygon fill="#ffffcc" stroke="black" points="484.01,-270.3 482.46,-272.37 471.6,-272.37 470.05,-270.3 430.01,-270.3 430.01,-251.7 484.01,-251.7 484.01,-270.3"/>
<text text-anchor="middle" x="457.01" y="-258.3" font-family="Helvetica,sans-Serif" font-size="9.00">insert.js</text>
</a>
</g>
</g>
<!-- client/src/business&#45;logic/set.js&#45;&gt;client/src/data&#45;access/insert.js -->
<g id="edge8" class="edge">
<title>client/src/business&#45;logic/set.js&#45;&gt;client/src/data&#45;access/insert.js</title>
<path fill="none" stroke="#000000" stroke-width="2" stroke-opacity="0.200000" d="M381.46,-283.94C394.52,-279.92 410.42,-275.03 424.18,-270.79"/>
<polygon fill="#000000" fill-opacity="0.200000" stroke="#000000" stroke-width="2" stroke-opacity="0.200000" points="424.81,-272.8 429.93,-269.02 423.58,-268.78 424.81,-272.8"/>
</g>
<!-- client/src/presentation/components/list.js -->
<g id="node12" class="node">
<title>client/src/presentation/components/list.js</title>
<g id="a_node12"><a xlink:href="client/src/presentation/components/list.js" xlink:title="list.js">
<path fill="#ffffcc" stroke="black" d="M375.06,-89.3C375.06,-89.3 333.46,-89.3 333.46,-89.3 330.36,-89.3 327.26,-86.2 327.26,-83.1 327.26,-83.1 327.26,-76.9 327.26,-76.9 327.26,-73.8 330.36,-70.7 333.46,-70.7 333.46,-70.7 375.06,-70.7 375.06,-70.7 378.16,-70.7 381.26,-73.8 381.26,-76.9 381.26,-76.9 381.26,-83.1 381.26,-83.1 381.26,-86.2 378.16,-89.3 375.06,-89.3"/>
<text text-anchor="middle" x="354.26" y="-77.3" font-family="Helvetica,sans-Serif" font-size="9.00">list.js</text>
</a>
</g>
</g>
<!-- client/src/presentation/components/number&#45;input.js -->
<g id="node13" class="node">
<title>client/src/presentation/components/number&#45;input.js</title>
<g id="a_node13"><a xlink:href="client/src/presentation/components/number-input.js" xlink:title="number&#45;input.js">
<path fill="#ffffcc" stroke="black" d="M387.06,-58.3C387.06,-58.3 321.45,-58.3 321.45,-58.3 318.35,-58.3 315.25,-55.2 315.25,-52.1 315.25,-52.1 315.25,-45.9 315.25,-45.9 315.25,-42.8 318.35,-39.7 321.45,-39.7 321.45,-39.7 387.06,-39.7 387.06,-39.7 390.16,-39.7 393.26,-42.8 393.26,-45.9 393.26,-45.9 393.26,-52.1 393.26,-52.1 393.26,-55.2 390.16,-58.3 387.06,-58.3"/>
<text text-anchor="middle" x="354.26" y="-46.3" font-family="Helvetica,sans-Serif" font-size="9.00">number&#45;input.js</text>
</a>
</g>
</g>
<!-- client/src/presentation/custom&#45;events/add&#45;number.js -->
<g id="node14" class="node">
<title>client/src/presentation/custom&#45;events/add&#45;number.js</title>
<g id="a_node14"><a xlink:href="client/src/presentation/custom-events/add-number.js" xlink:title="add&#45;number.js">
<path fill="#ffffcc" stroke="black" d="M487.32,-58.3C487.32,-58.3 426.7,-58.3 426.7,-58.3 423.6,-58.3 420.5,-55.2 420.5,-52.1 420.5,-52.1 420.5,-45.9 420.5,-45.9 420.5,-42.8 423.6,-39.7 426.7,-39.7 426.7,-39.7 487.32,-39.7 487.32,-39.7 490.42,-39.7 493.52,-42.8 493.52,-45.9 493.52,-45.9 493.52,-52.1 493.52,-52.1 493.52,-55.2 490.42,-58.3 487.32,-58.3"/>
<text text-anchor="middle" x="457.01" y="-46.3" font-family="Helvetica,sans-Serif" font-size="9.00">add&#45;number.js</text>
</a>
</g>
</g>
<!-- client/src/presentation/components/number&#45;input.js&#45;&gt;client/src/presentation/custom&#45;events/add&#45;number.js -->
<g id="edge10" class="edge">
<title>client/src/presentation/components/number&#45;input.js&#45;&gt;client/src/presentation/custom&#45;events/add&#45;number.js</title>
<path fill="none" stroke="#000000" stroke-width="2" stroke-opacity="0.200000" d="M393.35,-49C400.09,-49 407.14,-49 413.98,-49"/>
<polygon fill="#000000" fill-opacity="0.200000" stroke="#000000" stroke-width="2" stroke-opacity="0.200000" points="414.19,-51.1 420.19,-49 414.19,-46.9 414.19,-51.1"/>
</g>
<!-- client/src/presentation/handlers/add&#45;number.js -->
<g id="node15" class="node">
<title>client/src/presentation/handlers/add&#45;number.js</title>
<g id="a_node15"><a xlink:href="client/src/presentation/handlers/add-number.js" xlink:title="add&#45;number.js">
<path fill="#ffffcc" stroke="black" d="M283.32,-89.3C283.32,-89.3 222.7,-89.3 222.7,-89.3 219.6,-89.3 216.5,-86.2 216.5,-83.1 216.5,-83.1 216.5,-76.9 216.5,-76.9 216.5,-73.8 219.6,-70.7 222.7,-70.7 222.7,-70.7 283.32,-70.7 283.32,-70.7 286.42,-70.7 289.52,-73.8 289.52,-76.9 289.52,-76.9 289.52,-83.1 289.52,-83.1 289.52,-86.2 286.42,-89.3 283.32,-89.3"/>
<text text-anchor="middle" x="253.01" y="-77.3" font-family="Helvetica,sans-Serif" font-size="9.00">add&#45;number.js</text>
</a>
</g>
</g>
<!-- client/src/presentation/handlers/add&#45;number.js&#45;&gt;client/src/business&#45;logic/add&#45;number.js -->
<g id="edge11" class="edge">
<title>client/src/presentation/handlers/add&#45;number.js&#45;&gt;client/src/business&#45;logic/add&#45;number.js</title>
<path fill="none" stroke="#000000" stroke-width="2" stroke-opacity="0.200000" d="M254.21,-89.7C255.31,-117.75 262.36,-199.88 306.51,-245 308.17,-246.69 310.01,-248.21 311.98,-249.56"/>
<polygon fill="#000000" fill-opacity="0.200000" stroke="#000000" stroke-width="2" stroke-opacity="0.200000" points="311.22,-251.55 317.45,-252.79 313.35,-247.93 311.22,-251.55"/>
</g>
<!-- client/src/presentation/handlers/add&#45;number.js&#45;&gt;client/src/business&#45;logic/get&#45;sorted.js -->
<g id="edge12" class="edge">
<title>client/src/presentation/handlers/add&#45;number.js&#45;&gt;client/src/business&#45;logic/get&#45;sorted.js</title>
<path fill="none" stroke="#000000" stroke-width="2" stroke-opacity="0.200000" d="M255.02,-89.62C258.1,-113.96 269.51,-178.58 306.51,-214 309.27,-216.65 312.49,-218.86 315.93,-220.7"/>
<polygon fill="#000000" fill-opacity="0.200000" stroke="#000000" stroke-width="2" stroke-opacity="0.200000" points="315.15,-222.66 321.47,-223.31 316.94,-218.86 315.15,-222.66"/>
</g>
<!-- client/src/presentation/handlers/add&#45;number.js&#45;&gt;client/src/business&#45;logic/get.js -->
<g id="edge13" class="edge">
<title>client/src/presentation/handlers/add&#45;number.js&#45;&gt;client/src/business&#45;logic/get.js</title>
<path fill="none" stroke="#000000" stroke-width="2" stroke-opacity="0.200000" d="M256.25,-89.46C261.5,-109.58 276.49,-156.96 306.51,-183 310.79,-186.72 315.98,-189.58 321.32,-191.78"/>
<polygon fill="#000000" fill-opacity="0.200000" stroke="#000000" stroke-width="2" stroke-opacity="0.200000" points="320.78,-193.82 327.14,-193.92 322.23,-189.88 320.78,-193.82"/>
</g>
<!-- client/src/presentation/handlers/add&#45;number.js&#45;&gt;client/src/business&#45;logic/set.js -->
<g id="edge14" class="edge">
<title>client/src/presentation/handlers/add&#45;number.js&#45;&gt;client/src/business&#45;logic/set.js</title>
<path fill="none" stroke="#000000" stroke-width="2" stroke-opacity="0.200000" d="M253.63,-89.65C252.94,-120.96 255.05,-220.91 306.51,-276 310.46,-280.24 315.59,-283.35 320.99,-285.64"/>
<polygon fill="#000000" fill-opacity="0.200000" stroke="#000000" stroke-width="2" stroke-opacity="0.200000" points="320.56,-287.72 326.91,-287.81 322.01,-283.78 320.56,-287.72"/>
</g>
<!-- client/src/presentation/handlers/add&#45;number.js&#45;&gt;client/src/presentation/components/list.js -->
<g id="edge15" class="edge">
<title>client/src/presentation/handlers/add&#45;number.js&#45;&gt;client/src/presentation/components/list.js</title>
<path fill="none" stroke="#000000" stroke-width="2" stroke-opacity="0.200000" d="M289.56,-80C299.78,-80 310.88,-80 320.9,-80"/>
<polygon fill="#000000" fill-opacity="0.200000" stroke="#000000" stroke-width="2" stroke-opacity="0.200000" points="320.98,-82.1 326.98,-80 320.98,-77.9 320.98,-82.1"/>
</g>
<!-- client/src/presentation/handlers/initialize&#45;app.js -->
<g id="node16" class="node">
<title>client/src/presentation/handlers/initialize&#45;app.js</title>
<g id="a_node16"><a xlink:href="client/src/presentation/handlers/initialize-app.js" xlink:title="initialize&#45;app.js">
<path fill="#ffffcc" stroke="black" d="M284.31,-58.3C284.31,-58.3 221.71,-58.3 221.71,-58.3 218.61,-58.3 215.51,-55.2 215.51,-52.1 215.51,-52.1 215.51,-45.9 215.51,-45.9 215.51,-42.8 218.61,-39.7 221.71,-39.7 221.71,-39.7 284.31,-39.7 284.31,-39.7 287.41,-39.7 290.51,-42.8 290.51,-45.9 290.51,-45.9 290.51,-52.1 290.51,-52.1 290.51,-55.2 287.41,-58.3 284.31,-58.3"/>
<text text-anchor="middle" x="253.01" y="-46.3" font-family="Helvetica,sans-Serif" font-size="9.00">initialize&#45;app.js</text>
</a>
</g>
</g>
<!-- client/src/presentation/handlers/initialize&#45;app.js&#45;&gt;client/src/business&#45;logic/get&#45;sorted.js -->
<g id="edge16" class="edge">
<title>client/src/presentation/handlers/initialize&#45;app.js&#45;&gt;client/src/business&#45;logic/get&#45;sorted.js</title>
<path fill="none" stroke="#000000" stroke-width="2" stroke-opacity="0.200000" d="M290.58,-57.78C293.62,-59.73 296.35,-62.1 298.51,-65 318.3,-91.6 286.51,-187.55 306.51,-214 309.01,-217.31 312.24,-219.94 315.82,-222.03"/>
<polygon fill="#000000" fill-opacity="0.200000" stroke="#000000" stroke-width="2" stroke-opacity="0.200000" points="314.98,-223.96 321.29,-224.72 316.84,-220.19 314.98,-223.96"/>
</g>
<!-- client/src/presentation/handlers/initialize&#45;app.js&#45;&gt;client/src/business&#45;logic/get.js -->
<g id="edge17" class="edge">
<title>client/src/presentation/handlers/initialize&#45;app.js&#45;&gt;client/src/business&#45;logic/get.js</title>
<path fill="none" stroke="#000000" stroke-width="2" stroke-opacity="0.200000" d="M290.54,-57.81C293.59,-59.75 296.33,-62.12 298.51,-65 314.34,-85.98 290.51,-162.15 306.51,-183 310.27,-187.9 315.61,-191.31 321.35,-193.68"/>
<polygon fill="#000000" fill-opacity="0.200000" stroke="#000000" stroke-width="2" stroke-opacity="0.200000" points="320.82,-195.72 327.17,-195.72 322.2,-191.75 320.82,-195.72"/>
</g>
<!-- client/src/presentation/handlers/initialize&#45;app.js&#45;&gt;client/src/business&#45;logic/initialize&#45;state.js -->
<g id="edge18" class="edge">
<title>client/src/presentation/handlers/initialize&#45;app.js&#45;&gt;client/src/business&#45;logic/initialize&#45;state.js</title>
<path fill="none" stroke="#000000" stroke-width="2" stroke-opacity="0.200000" d="M290.73,-58.26C293.66,-60.11 296.32,-62.33 298.51,-65 313.88,-83.77 295.86,-97.2 306.51,-119 313.34,-132.98 325.6,-145.6 335.85,-154.53"/>
<polygon fill="#000000" fill-opacity="0.200000" stroke="#000000" stroke-width="2" stroke-opacity="0.200000" points="334.75,-156.35 340.69,-158.61 337.46,-153.14 334.75,-156.35"/>
</g>
<!-- client/src/presentation/handlers/initialize&#45;app.js&#45;&gt;client/src/presentation/components/list.js -->
<g id="edge19" class="edge">
<title>client/src/presentation/handlers/initialize&#45;app.js&#45;&gt;client/src/presentation/components/list.js</title>
<path fill="none" stroke="#000000" stroke-width="2" stroke-opacity="0.200000" d="M284.06,-58.39C295.72,-62.03 309.09,-66.21 320.96,-69.91"/>
<polygon fill="#000000" fill-opacity="0.200000" stroke="#000000" stroke-width="2" stroke-opacity="0.200000" points="320.66,-72.02 327.01,-71.8 321.91,-68.01 320.66,-72.02"/>
</g>
<!-- client/src/presentation/handlers/initialize&#45;app.js&#45;&gt;client/src/presentation/components/number&#45;input.js -->
<g id="edge20" class="edge">
<title>client/src/presentation/handlers/initialize&#45;app.js&#45;&gt;client/src/presentation/components/number&#45;input.js</title>
<path fill="none" stroke="#000000" stroke-width="2" stroke-opacity="0.200000" d="M290.68,-49C296.65,-49 302.88,-49 309,-49"/>
<polygon fill="#000000" fill-opacity="0.200000" stroke="#000000" stroke-width="2" stroke-opacity="0.200000" points="309.07,-51.1 315.07,-49 309.07,-46.9 309.07,-51.1"/>
</g>
<!-- client/src/presentation/init/index.js -->
<g id="node17" class="node">
<title>client/src/presentation/init/index.js</title>
<g id="a_node17"><a xlink:href="client/src/presentation/init/index.js" xlink:title="index.js">
<path fill="#ffffcc" stroke="black" d="M87.8,-73.3C87.8,-73.3 46.2,-73.3 46.2,-73.3 43.1,-73.3 40,-70.2 40,-67.1 40,-67.1 40,-60.9 40,-60.9 40,-57.8 43.1,-54.7 46.2,-54.7 46.2,-54.7 87.8,-54.7 87.8,-54.7 90.9,-54.7 94,-57.8 94,-60.9 94,-60.9 94,-67.1 94,-67.1 94,-70.2 90.9,-73.3 87.8,-73.3"/>
<text text-anchor="middle" x="67" y="-61.3" font-family="Helvetica,sans-Serif" font-size="9.00">index.js</text>
</a>
</g>
</g>
<!-- client/src/presentation/listeners/add&#45;number.js -->
<g id="node18" class="node">
<title>client/src/presentation/listeners/add&#45;number.js</title>
<g id="a_node18"><a xlink:href="client/src/presentation/listeners/add-number.js" xlink:title="add&#45;number.js">
<path fill="#ffffcc" stroke="black" d="M185.06,-89.3C185.06,-89.3 124.44,-89.3 124.44,-89.3 121.34,-89.3 118.24,-86.2 118.24,-83.1 118.24,-83.1 118.24,-76.9 118.24,-76.9 118.24,-73.8 121.34,-70.7 124.44,-70.7 124.44,-70.7 185.06,-70.7 185.06,-70.7 188.16,-70.7 191.26,-73.8 191.26,-76.9 191.26,-76.9 191.26,-83.1 191.26,-83.1 191.26,-86.2 188.16,-89.3 185.06,-89.3"/>
<text text-anchor="middle" x="154.75" y="-77.3" font-family="Helvetica,sans-Serif" font-size="9.00">add&#45;number.js</text>
</a>
</g>
</g>
<!-- client/src/presentation/init/index.js&#45;&gt;client/src/presentation/listeners/add&#45;number.js -->
<g id="edge21" class="edge">
<title>client/src/presentation/init/index.js&#45;&gt;client/src/presentation/listeners/add&#45;number.js</title>
<path fill="none" stroke="#000000" stroke-width="2" stroke-opacity="0.200000" d="M94.2,-68.89C99.88,-69.95 106.04,-71.1 112.16,-72.24"/>
<polygon fill="#000000" fill-opacity="0.200000" stroke="#000000" stroke-width="2" stroke-opacity="0.200000" points="111.96,-74.34 118.24,-73.37 112.73,-70.21 111.96,-74.34"/>
</g>
<!-- client/src/presentation/listeners/load.js -->
<g id="node19" class="node">
<title>client/src/presentation/listeners/load.js</title>
<g id="a_node19"><a xlink:href="client/src/presentation/listeners/load.js" xlink:title="load.js">
<path fill="#ffffcc" stroke="black" d="M175.55,-58.3C175.55,-58.3 133.95,-58.3 133.95,-58.3 130.85,-58.3 127.75,-55.2 127.75,-52.1 127.75,-52.1 127.75,-45.9 127.75,-45.9 127.75,-42.8 130.85,-39.7 133.95,-39.7 133.95,-39.7 175.55,-39.7 175.55,-39.7 178.65,-39.7 181.75,-42.8 181.75,-45.9 181.75,-45.9 181.75,-52.1 181.75,-52.1 181.75,-55.2 178.65,-58.3 175.55,-58.3"/>
<text text-anchor="middle" x="154.75" y="-46.3" font-family="Helvetica,sans-Serif" font-size="9.00">load.js</text>
</a>
</g>
</g>
<!-- client/src/presentation/init/index.js&#45;&gt;client/src/presentation/listeners/load.js -->
<g id="edge22" class="edge">
<title>client/src/presentation/init/index.js&#45;&gt;client/src/presentation/listeners/load.js</title>
<path fill="none" stroke="#000000" stroke-width="2" stroke-opacity="0.200000" d="M94.2,-59.42C102.84,-57.91 112.56,-56.21 121.59,-54.63"/>
<polygon fill="#000000" fill-opacity="0.200000" stroke="#000000" stroke-width="2" stroke-opacity="0.200000" points="122.17,-56.66 127.72,-53.55 121.45,-52.52 122.17,-56.66"/>
</g>
<!-- client/src/presentation/listeners/add&#45;number.js&#45;&gt;client/src/presentation/handlers/add&#45;number.js -->
<g id="edge23" class="edge">
<title>client/src/presentation/listeners/add&#45;number.js&#45;&gt;client/src/presentation/handlers/add&#45;number.js</title>
<path fill="none" stroke="#000000" stroke-width="2" stroke-opacity="0.200000" d="M191.32,-80C197.43,-80 203.82,-80 210.08,-80"/>
<polygon fill="#000000" fill-opacity="0.200000" stroke="#000000" stroke-width="2" stroke-opacity="0.200000" points="210.26,-82.1 216.26,-80 210.26,-77.9 210.26,-82.1"/>
</g>
<!-- client/src/presentation/listeners/load.js&#45;&gt;client/src/presentation/handlers/initialize&#45;app.js -->
<g id="edge24" class="edge">
<title>client/src/presentation/listeners/load.js&#45;&gt;client/src/presentation/handlers/initialize&#45;app.js</title>
<path fill="none" stroke="#000000" stroke-width="2" stroke-opacity="0.200000" d="M181.8,-49C190.3,-49 199.96,-49 209.35,-49"/>
<polygon fill="#000000" fill-opacity="0.200000" stroke="#000000" stroke-width="2" stroke-opacity="0.200000" points="209.46,-51.1 215.46,-49 209.46,-46.9 209.46,-51.1"/>
</g>
</g>
</svg>
