<?xml version="1.0" encoding="UTF-8" standalone="no"?>
<!DOCTYPE svg PUBLIC "-//W3C//DTD SVG 1.1//EN"
 "http://www.w3.org/Graphics/SVG/1.1/DTD/svg11.dtd">
<!-- Generated by graphviz version 2.44.0 (20200408.0750)
 -->
<!-- Title: dependency&#45;cruiser output Pages: 1 -->
<svg width="398pt" height="456pt"
 viewBox="0.00 0.00 397.99 456.00" xmlns="http://www.w3.org/2000/svg" xmlns:xlink="http://www.w3.org/1999/xlink">
<g id="graph0" class="graph" transform="scale(1 1) rotate(0) translate(4 452)">
<title>dependency&#45;cruiser output</title>
<polygon fill="white" stroke="transparent" points="-4,4 -4,-452 393.99,-452 393.99,4 -4,4"/>
<g id="clust1" class="cluster">
<title>cluster_client</title>
<path fill="#ffffff" stroke="black" stroke-width="2" d="M20,-69C20,-69 369.99,-69 369.99,-69 375.99,-69 381.99,-75 381.99,-81 381.99,-81 381.99,-428 381.99,-428 381.99,-434 375.99,-440 369.99,-440 369.99,-440 20,-440 20,-440 14,-440 8,-434 8,-428 8,-428 8,-81 8,-81 8,-75 14,-69 20,-69"/>
<text text-anchor="middle" x="195" y="-427.9" font-family="Helvetica,sans-Serif" font-weight="bold" font-size="9.00">client</text>
</g>
<g id="clust2" class="cluster">
<title>cluster_client/src</title>
<path fill="#ffffff" stroke="black" stroke-width="2" d="M28,-77C28,-77 361.99,-77 361.99,-77 367.99,-77 373.99,-83 373.99,-89 373.99,-89 373.99,-401 373.99,-401 373.99,-407 367.99,-413 361.99,-413 361.99,-413 28,-413 28,-413 22,-413 16,-407 16,-401 16,-401 16,-89 16,-89 16,-83 22,-77 28,-77"/>
<text text-anchor="middle" x="195" y="-400.9" font-family="Helvetica,sans-Serif" font-weight="bold" font-size="9.00">src</text>
</g>
<g id="clust3" class="cluster">
<title>cluster_client/src/data&#45;access</title>
<path fill="#ffffff" stroke="black" stroke-width="2" d="M36,-85C36,-85 353.99,-85 353.99,-85 359.99,-85 365.99,-91 365.99,-97 365.99,-97 365.99,-374 365.99,-374 365.99,-380 359.99,-386 353.99,-386 353.99,-386 36,-386 36,-386 30,-386 24,-380 24,-374 24,-374 24,-97 24,-97 24,-91 30,-85 36,-85"/>
<text text-anchor="middle" x="195" y="-373.9" font-family="Helvetica,sans-Serif" font-weight="bold" font-size="9.00">data&#45;access</text>
</g>
<g id="clust4" class="cluster">
<title>cluster_client/src/data&#45;access/local&#45;storage</title>
<path fill="#ffffff" stroke="black" stroke-width="2" d="M127.74,-183C127.74,-183 345.99,-183 345.99,-183 351.99,-183 357.99,-189 357.99,-195 357.99,-195 357.99,-330 357.99,-330 357.99,-336 351.99,-342 345.99,-342 345.99,-342 127.74,-342 127.74,-342 121.74,-342 115.74,-336 115.74,-330 115.74,-330 115.74,-195 115.74,-195 115.74,-189 121.74,-183 127.74,-183"/>
<text text-anchor="middle" x="236.87" y="-329.9" font-family="Helvetica,sans-Serif" font-weight="bold" font-size="9.00">local&#45;storage</text>
</g>
<g id="clust5" class="cluster">
<title>cluster_client/src/data&#45;access/utils</title>
<path fill="#ffffff" stroke="black" stroke-width="2" d="M118.99,-99C118.99,-99 275.99,-99 275.99,-99 281.99,-99 287.99,-105 287.99,-111 287.99,-111 287.99,-140 287.99,-140 287.99,-146 281.99,-152 275.99,-152 275.99,-152 118.99,-152 118.99,-152 112.99,-152 106.99,-146 106.99,-140 106.99,-140 106.99,-111 106.99,-111 106.99,-105 112.99,-99 118.99,-99"/>
<text text-anchor="middle" x="197.49" y="-139.9" font-family="Helvetica,sans-Serif" font-weight="bold" font-size="9.00">utils</text>
</g>
<g id="clust6" class="cluster">
<title>cluster_lib</title>
<path fill="#ffffff" stroke="black" stroke-width="2" d="M126.74,-8C126.74,-8 174.75,-8 174.75,-8 180.75,-8 186.75,-14 186.75,-20 186.75,-20 186.75,-49 186.75,-49 186.75,-55 180.75,-61 174.75,-61 174.75,-61 126.74,-61 126.74,-61 120.74,-61 114.74,-55 114.74,-49 114.74,-49 114.74,-20 114.74,-20 114.74,-14 120.74,-8 126.74,-8"/>
<text text-anchor="middle" x="150.74" y="-48.9" font-family="Helvetica,sans-Serif" font-weight="bold" font-size="9.00">lib</text>
</g>
<!-- client/src/data&#45;access/all&#45;keys.js -->
<g id="node1" class="node">
<title>client/src/data&#45;access/all&#45;keys.js</title>
<g id="a_node1"><a xlink:href="client/src/data-access/all-keys.js" xlink:title="all&#45;keys.js">
<path fill="#ffffcc" stroke="black" d="M87.29,-266.3C87.29,-266.3 43.7,-266.3 43.7,-266.3 40.6,-266.3 37.5,-263.2 37.5,-260.1 37.5,-260.1 37.5,-253.9 37.5,-253.9 37.5,-250.8 40.6,-247.7 43.7,-247.7 43.7,-247.7 87.29,-247.7 87.29,-247.7 90.39,-247.7 93.49,-250.8 93.49,-253.9 93.49,-253.9 93.49,-260.1 93.49,-260.1 93.49,-263.2 90.39,-266.3 87.29,-266.3"/>
<text text-anchor="middle" x="65.5" y="-254.3" font-family="Helvetica,sans-Serif" font-size="9.00">all&#45;keys.js</text>
</a>
</g>
</g>
<!-- client/src/data&#45;access/local&#45;storage/state.js -->
<g id="node2" class="node">
<title>client/src/data&#45;access/local&#45;storage/state.js</title>
<g id="a_node2"><a xlink:href="client/src/data-access/local-storage/state.js" xlink:title="state.js">
<path fill="#ffffcc" stroke="black" d="M171.54,-262.3C171.54,-262.3 129.94,-262.3 129.94,-262.3 126.84,-262.3 123.74,-259.2 123.74,-256.1 123.74,-256.1 123.74,-249.9 123.74,-249.9 123.74,-246.8 126.84,-243.7 129.94,-243.7 129.94,-243.7 171.54,-243.7 171.54,-243.7 174.64,-243.7 177.74,-246.8 177.74,-249.9 177.74,-249.9 177.74,-256.1 177.74,-256.1 177.74,-259.2 174.64,-262.3 171.54,-262.3"/>
<text text-anchor="middle" x="150.74" y="-250.3" font-family="Helvetica,sans-Serif" font-size="9.00">state.js</text>
</a>
</g>
</g>
<!-- client/src/data&#45;access/all&#45;keys.js&#45;&gt;client/src/data&#45;access/local&#45;storage/state.js -->
<g id="edge1" class="edge">
<title>client/src/data&#45;access/all&#45;keys.js&#45;&gt;client/src/data&#45;access/local&#45;storage/state.js</title>
<path fill="none" stroke="#000000" stroke-width="2" stroke-opacity="0.200000" d="M93.29,-255.71C101.02,-255.34 109.53,-254.93 117.55,-254.55"/>
<polygon fill="#000000" fill-opacity="0.200000" stroke="#000000" stroke-width="2" stroke-opacity="0.200000" points="117.67,-256.64 123.56,-254.26 117.47,-252.45 117.67,-256.64"/>
</g>
<!-- client/src/data&#45;access/local&#45;storage/get&#45;item.js -->
<g id="node4" class="node">
<title>client/src/data&#45;access/local&#45;storage/get&#45;item.js</title>
<g id="a_node4"><a xlink:href="client/src/data-access/local-storage/get-item.js" xlink:title="get&#45;item.js">
<path fill="#ffffcc" stroke="black" d="M262.54,-284.3C262.54,-284.3 216.94,-284.3 216.94,-284.3 213.84,-284.3 210.74,-281.2 210.74,-278.1 210.74,-278.1 210.74,-271.9 210.74,-271.9 210.74,-268.8 213.84,-265.7 216.94,-265.7 216.94,-265.7 262.54,-265.7 262.54,-265.7 265.64,-265.7 268.74,-268.8 268.74,-271.9 268.74,-271.9 268.74,-278.1 268.74,-278.1 268.74,-281.2 265.64,-284.3 262.54,-284.3"/>
<text text-anchor="middle" x="239.74" y="-272.3" font-family="Helvetica,sans-Serif" font-size="9.00">get&#45;item.js</text>
</a>
</g>
</g>
<!-- client/src/data&#45;access/local&#45;storage/state.js&#45;&gt;client/src/data&#45;access/local&#45;storage/get&#45;item.js -->
<g id="edge20" class="edge">
<title>client/src/data&#45;access/local&#45;storage/state.js&#45;&gt;client/src/data&#45;access/local&#45;storage/get&#45;item.js</title>
<path fill="none" stroke="#000000" stroke-width="2" stroke-opacity="0.200000" d="M177.85,-259.6C186.39,-261.76 196,-264.19 205.02,-266.47"/>
<polygon fill="#000000" fill-opacity="0.200000" stroke="#000000" stroke-width="2" stroke-opacity="0.200000" points="204.51,-268.51 210.84,-267.94 205.54,-264.44 204.51,-268.51"/>
</g>
<!-- client/src/data&#45;access/local&#45;storage/store.js -->
<g id="node15" class="node">
<title>client/src/data&#45;access/local&#45;storage/store.js</title>
<g id="a_node15"><a xlink:href="client/src/data-access/local-storage/store.js" xlink:title="store.js">
<path fill="#ffffcc" stroke="black" d="M343.79,-262.3C343.79,-262.3 302.19,-262.3 302.19,-262.3 299.09,-262.3 295.99,-259.2 295.99,-256.1 295.99,-256.1 295.99,-249.9 295.99,-249.9 295.99,-246.8 299.09,-243.7 302.19,-243.7 302.19,-243.7 343.79,-243.7 343.79,-243.7 346.89,-243.7 349.99,-246.8 349.99,-249.9 349.99,-249.9 349.99,-256.1 349.99,-256.1 349.99,-259.2 346.89,-262.3 343.79,-262.3"/>
<text text-anchor="middle" x="322.99" y="-250.3" font-family="Helvetica,sans-Serif" font-size="9.00">store.js</text>
</a>
</g>
</g>
<!-- client/src/data&#45;access/local&#45;storage/state.js&#45;&gt;client/src/data&#45;access/local&#45;storage/store.js -->
<g id="edge21" class="edge">
<title>client/src/data&#45;access/local&#45;storage/state.js&#45;&gt;client/src/data&#45;access/local&#45;storage/store.js</title>
<path fill="none" stroke="#000000" stroke-width="2" stroke-opacity="0.200000" d="M177.97,-253C207.97,-253 257.09,-253 289.49,-253"/>
<polygon fill="#000000" fill-opacity="0.200000" stroke="#000000" stroke-width="2" stroke-opacity="0.200000" points="289.73,-255.1 295.73,-253 289.73,-250.9 289.73,-255.1"/>
</g>
<!-- client/src/data&#45;access/find&#45;all.js -->
<g id="node3" class="node">
<title>client/src/data&#45;access/find&#45;all.js</title>
<g id="a_node3"><a xlink:href="client/src/data-access/find-all.js" xlink:title="find&#45;all.js">
<path fill="#ffffcc" stroke="black" d="M86.3,-297.3C86.3,-297.3 44.7,-297.3 44.7,-297.3 41.6,-297.3 38.5,-294.2 38.5,-291.1 38.5,-291.1 38.5,-284.9 38.5,-284.9 38.5,-281.8 41.6,-278.7 44.7,-278.7 44.7,-278.7 86.3,-278.7 86.3,-278.7 89.4,-278.7 92.5,-281.8 92.5,-284.9 92.5,-284.9 92.5,-291.1 92.5,-291.1 92.5,-294.2 89.4,-297.3 86.3,-297.3"/>
<text text-anchor="middle" x="65.5" y="-285.3" font-family="Helvetica,sans-Serif" font-size="9.00">find&#45;all.js</text>
</a>
</g>
</g>
<!-- client/src/data&#45;access/find&#45;all.js&#45;&gt;client/src/data&#45;access/local&#45;storage/state.js -->
<g id="edge3" class="edge">
<title>client/src/data&#45;access/find&#45;all.js&#45;&gt;client/src/data&#45;access/local&#45;storage/state.js</title>
<path fill="none" stroke="#000000" stroke-width="2" stroke-opacity="0.200000" d="M87.09,-278.58C91.11,-276.54 95.24,-274.3 98.99,-272 102.78,-269.68 103.03,-268.01 106.99,-266 110.35,-264.3 113.98,-262.77 117.64,-261.42"/>
<polygon fill="#000000" fill-opacity="0.200000" stroke="#000000" stroke-width="2" stroke-opacity="0.200000" points="118.42,-263.37 123.41,-259.43 117.05,-259.4 118.42,-263.37"/>
</g>
<!-- client/src/data&#45;access/find&#45;all.js&#45;&gt;client/src/data&#45;access/local&#45;storage/get&#45;item.js -->
<g id="edge2" class="edge">
<title>client/src/data&#45;access/find&#45;all.js&#45;&gt;client/src/data&#45;access/local&#45;storage/get&#45;item.js</title>
<path fill="none" stroke="#000000" stroke-width="2" stroke-opacity="0.200000" d="M92.66,-286.03C122.57,-283.77 171.63,-280.07 204.55,-277.58"/>
<polygon fill="#000000" fill-opacity="0.200000" stroke="#000000" stroke-width="2" stroke-opacity="0.200000" points="205.08,-279.65 210.91,-277.1 204.77,-275.46 205.08,-279.65"/>
</g>
<!-- client/src/data&#45;access/local&#45;storage/get&#45;item.js&#45;&gt;client/src/data&#45;access/local&#45;storage/store.js -->
<g id="edge17" class="edge">
<title>client/src/data&#45;access/local&#45;storage/get&#45;item.js&#45;&gt;client/src/data&#45;access/local&#45;storage/store.js</title>
<path fill="none" stroke="#000000" stroke-width="2" stroke-opacity="0.200000" d="M268.7,-267.43C275.59,-265.56 283.02,-263.55 290.07,-261.64"/>
<polygon fill="#000000" fill-opacity="0.200000" stroke="#000000" stroke-width="2" stroke-opacity="0.200000" points="290.65,-263.66 295.89,-260.07 289.55,-259.61 290.65,-263.66"/>
</g>
<!-- client/src/data&#45;access/find.js -->
<g id="node5" class="node">
<title>client/src/data&#45;access/find.js</title>
<g id="a_node5"><a xlink:href="client/src/data-access/find.js" xlink:title="find.js">
<path fill="#ffffcc" stroke="black" d="M86.3,-328.3C86.3,-328.3 44.7,-328.3 44.7,-328.3 41.6,-328.3 38.5,-325.2 38.5,-322.1 38.5,-322.1 38.5,-315.9 38.5,-315.9 38.5,-312.8 41.6,-309.7 44.7,-309.7 44.7,-309.7 86.3,-309.7 86.3,-309.7 89.4,-309.7 92.5,-312.8 92.5,-315.9 92.5,-315.9 92.5,-322.1 92.5,-322.1 92.5,-325.2 89.4,-328.3 86.3,-328.3"/>
<text text-anchor="middle" x="65.5" y="-316.3" font-family="Helvetica,sans-Serif" font-size="9.00">find.js</text>
</a>
</g>
</g>
<!-- client/src/data&#45;access/find.js&#45;&gt;client/src/data&#45;access/local&#45;storage/state.js -->
<g id="edge5" class="edge">
<title>client/src/data&#45;access/find.js&#45;&gt;client/src/data&#45;access/local&#45;storage/state.js</title>
<path fill="none" stroke="#000000" stroke-width="2" stroke-opacity="0.200000" d="M91.68,-309.62C94.44,-307.77 96.98,-305.58 98.99,-303 109.35,-289.74 95.6,-278.38 106.99,-266 109.96,-262.78 113.69,-260.35 117.7,-258.52"/>
<polygon fill="#000000" fill-opacity="0.200000" stroke="#000000" stroke-width="2" stroke-opacity="0.200000" points="118.46,-260.48 123.31,-256.37 116.96,-256.55 118.46,-260.48"/>
</g>
<!-- client/src/data&#45;access/find.js&#45;&gt;client/src/data&#45;access/local&#45;storage/get&#45;item.js -->
<g id="edge4" class="edge">
<title>client/src/data&#45;access/find.js&#45;&gt;client/src/data&#45;access/local&#45;storage/get&#45;item.js</title>
<path fill="none" stroke="#000000" stroke-width="2" stroke-opacity="0.200000" d="M92.62,-311.82C97.4,-310.53 102.34,-309.21 106.99,-308 140.29,-299.31 178.45,-289.8 205.1,-283.23"/>
<polygon fill="#000000" fill-opacity="0.200000" stroke="#000000" stroke-width="2" stroke-opacity="0.200000" points="205.62,-285.27 210.94,-281.79 204.62,-281.19 205.62,-285.27"/>
</g>
<!-- client/src/data&#45;access/has&#45;key.js -->
<g id="node6" class="node">
<title>client/src/data&#45;access/has&#45;key.js</title>
<g id="a_node6"><a xlink:href="client/src/data-access/has-key.js" xlink:title="has&#45;key.js">
<path fill="#ffffcc" stroke="black" d="M87.3,-235.3C87.3,-235.3 43.69,-235.3 43.69,-235.3 40.59,-235.3 37.49,-232.2 37.49,-229.1 37.49,-229.1 37.49,-222.9 37.49,-222.9 37.49,-219.8 40.59,-216.7 43.69,-216.7 43.69,-216.7 87.3,-216.7 87.3,-216.7 90.4,-216.7 93.5,-219.8 93.5,-222.9 93.5,-222.9 93.5,-229.1 93.5,-229.1 93.5,-232.2 90.4,-235.3 87.3,-235.3"/>
<text text-anchor="middle" x="65.5" y="-223.3" font-family="Helvetica,sans-Serif" font-size="9.00">has&#45;key.js</text>
</a>
</g>
</g>
<!-- client/src/data&#45;access/has&#45;key.js&#45;&gt;client/src/data&#45;access/local&#45;storage/state.js -->
<g id="edge6" class="edge">
<title>client/src/data&#45;access/has&#45;key.js&#45;&gt;client/src/data&#45;access/local&#45;storage/state.js</title>
<path fill="none" stroke="#000000" stroke-width="2" stroke-opacity="0.200000" d="M93.02,-235.33C97.67,-236.92 102.47,-238.53 106.99,-240 110.4,-241.11 113.96,-242.23 117.52,-243.34"/>
<polygon fill="#000000" fill-opacity="0.200000" stroke="#000000" stroke-width="2" stroke-opacity="0.200000" points="117.12,-245.42 123.47,-245.18 118.36,-241.4 117.12,-245.42"/>
</g>
<!-- client/src/data&#45;access/insert.js -->
<g id="node7" class="node">
<title>client/src/data&#45;access/insert.js</title>
<g id="a_node7"><a xlink:href="client/src/data-access/insert.js" xlink:title="insert.js">
<path fill="#ffffcc" stroke="black" d="M86.3,-173.3C86.3,-173.3 44.7,-173.3 44.7,-173.3 41.6,-173.3 38.5,-170.2 38.5,-167.1 38.5,-167.1 38.5,-160.9 38.5,-160.9 38.5,-157.8 41.6,-154.7 44.7,-154.7 44.7,-154.7 86.3,-154.7 86.3,-154.7 89.4,-154.7 92.5,-157.8 92.5,-160.9 92.5,-160.9 92.5,-167.1 92.5,-167.1 92.5,-170.2 89.4,-173.3 86.3,-173.3"/>
<text text-anchor="middle" x="65.5" y="-161.3" font-family="Helvetica,sans-Serif" font-size="9.00">insert.js</text>
</a>
</g>
</g>
<!-- client/src/data&#45;access/insert.js&#45;&gt;client/src/data&#45;access/local&#45;storage/state.js -->
<g id="edge8" class="edge">
<title>client/src/data&#45;access/insert.js&#45;&gt;client/src/data&#45;access/local&#45;storage/state.js</title>
<path fill="none" stroke="#000000" stroke-width="2" stroke-opacity="0.200000" d="M92.19,-173.45C94.8,-175.28 97.16,-177.45 98.99,-180 114.69,-201.85 89.58,-219.49 106.99,-240 109.89,-243.41 113.66,-245.95 117.76,-247.83"/>
<polygon fill="#000000" fill-opacity="0.200000" stroke="#000000" stroke-width="2" stroke-opacity="0.200000" points="117.14,-249.84 123.49,-250.01 118.63,-245.91 117.14,-249.84"/>
</g>
<!-- client/src/data&#45;access/local&#45;storage/set&#45;item.js -->
<g id="node8" class="node">
<title>client/src/data&#45;access/local&#45;storage/set&#45;item.js</title>
<g id="a_node8"><a xlink:href="client/src/data-access/local-storage/set-item.js" xlink:title="set&#45;item.js">
<path fill="#ffffcc" stroke="black" d="M262.04,-209.3C262.04,-209.3 217.45,-209.3 217.45,-209.3 214.35,-209.3 211.25,-206.2 211.25,-203.1 211.25,-203.1 211.25,-196.9 211.25,-196.9 211.25,-193.8 214.35,-190.7 217.45,-190.7 217.45,-190.7 262.04,-190.7 262.04,-190.7 265.14,-190.7 268.24,-193.8 268.24,-196.9 268.24,-196.9 268.24,-203.1 268.24,-203.1 268.24,-206.2 265.14,-209.3 262.04,-209.3"/>
<text text-anchor="middle" x="239.74" y="-197.3" font-family="Helvetica,sans-Serif" font-size="9.00">set&#45;item.js</text>
</a>
</g>
</g>
<!-- client/src/data&#45;access/insert.js&#45;&gt;client/src/data&#45;access/local&#45;storage/set&#45;item.js -->
<g id="edge7" class="edge">
<title>client/src/data&#45;access/insert.js&#45;&gt;client/src/data&#45;access/local&#45;storage/set&#45;item.js</title>
<path fill="none" stroke="#000000" stroke-width="2" stroke-opacity="0.200000" d="M89.57,-173.31C92.93,-175.23 96.2,-177.46 98.99,-180 104.01,-184.57 101.16,-189.53 106.99,-193 136.56,-210.57 176.76,-209.94 204.96,-206.41"/>
<polygon fill="#000000" fill-opacity="0.200000" stroke="#000000" stroke-width="2" stroke-opacity="0.200000" points="205.48,-208.46 211.14,-205.57 204.91,-204.3 205.48,-208.46"/>
</g>
<!-- client/src/data&#45;access/utils/is&#45;json&#45;data.js -->
<g id="node9" class="node">
<title>client/src/data&#45;access/utils/is&#45;json&#45;data.js</title>
<g id="a_node9"><a xlink:href="client/src/data-access/utils/is-json-data.js" xlink:title="is&#45;json&#45;data.js">
<path fill="#ffffcc" stroke="black" d="M180.05,-125.3C180.05,-125.3 121.44,-125.3 121.44,-125.3 118.34,-125.3 115.24,-122.2 115.24,-119.1 115.24,-119.1 115.24,-112.9 115.24,-112.9 115.24,-109.8 118.34,-106.7 121.44,-106.7 121.44,-106.7 180.05,-106.7 180.05,-106.7 183.15,-106.7 186.25,-109.8 186.25,-112.9 186.25,-112.9 186.25,-119.1 186.25,-119.1 186.25,-122.2 183.15,-125.3 180.05,-125.3"/>
<text text-anchor="middle" x="150.74" y="-113.3" font-family="Helvetica,sans-Serif" font-size="9.00">is&#45;json&#45;data.js</text>
</a>
</g>
</g>
<!-- client/src/data&#45;access/insert.js&#45;&gt;client/src/data&#45;access/utils/is&#45;json&#45;data.js -->
<g id="edge9" class="edge">
<title>client/src/data&#45;access/insert.js&#45;&gt;client/src/data&#45;access/utils/is&#45;json&#45;data.js</title>
<path fill="none" stroke="#000000" stroke-width="2" stroke-opacity="0.200000" d="M90.59,-154.65C93.66,-152.77 96.58,-150.56 98.99,-148 105.28,-141.33 100.19,-135.14 106.99,-129 107.9,-128.18 108.86,-127.42 109.86,-126.7"/>
<polygon fill="#000000" fill-opacity="0.200000" stroke="#000000" stroke-width="2" stroke-opacity="0.200000" points="111.1,-128.4 115.14,-123.49 108.92,-124.81 111.1,-128.4"/>
</g>
<!-- client/src/data&#45;access/local&#45;storage/set&#45;item.js&#45;&gt;client/src/data&#45;access/local&#45;storage/store.js -->
<g id="edge19" class="edge">
<title>client/src/data&#45;access/local&#45;storage/set&#45;item.js&#45;&gt;client/src/data&#45;access/local&#45;storage/store.js</title>
<path fill="none" stroke="#000000" stroke-width="2" stroke-opacity="0.200000" d="M268.31,-206.76C275.05,-209.09 282.04,-212.13 287.99,-216 297.14,-221.96 305.47,-230.93 311.59,-238.55"/>
<polygon fill="#000000" fill-opacity="0.200000" stroke="#000000" stroke-width="2" stroke-opacity="0.200000" points="310.13,-240.09 315.46,-243.55 313.45,-237.52 310.13,-240.09"/>
</g>
<!-- client/src/data&#45;access/utils/is&#45;plain&#45;object.js -->
<g id="node13" class="node">
<title>client/src/data&#45;access/utils/is&#45;plain&#45;object.js</title>
<g id="a_node13"><a xlink:href="client/src/data-access/utils/is-plain-object.js" xlink:title="is&#45;plain&#45;object.js">
<path fill="#ffffcc" stroke="black" d="M274.04,-125.3C274.04,-125.3 205.44,-125.3 205.44,-125.3 202.34,-125.3 199.24,-122.2 199.24,-119.1 199.24,-119.1 199.24,-112.9 199.24,-112.9 199.24,-109.8 202.34,-106.7 205.44,-106.7 205.44,-106.7 274.04,-106.7 274.04,-106.7 277.14,-106.7 280.24,-109.8 280.24,-112.9 280.24,-112.9 280.24,-119.1 280.24,-119.1 280.24,-122.2 277.14,-125.3 274.04,-125.3"/>
<text text-anchor="middle" x="239.74" y="-113.3" font-family="Helvetica,sans-Serif" font-size="9.00">is&#45;plain&#45;object.js</text>
</a>
</g>
</g>
<!-- client/src/data&#45;access/utils/is&#45;json&#45;data.js&#45;&gt;client/src/data&#45;access/utils/is&#45;plain&#45;object.js -->
<g id="edge29" class="edge">
<title>client/src/data&#45;access/utils/is&#45;json&#45;data.js&#45;&gt;client/src/data&#45;access/utils/is&#45;plain&#45;object.js</title>
<path fill="none" stroke="#000000" stroke-width="2" stroke-opacity="0.200000" d="M186.38,-116C188.64,-116 190.94,-116 193.25,-116"/>
<polygon fill="#000000" fill-opacity="0.200000" stroke="#000000" stroke-width="2" stroke-opacity="0.200000" points="193.36,-118.1 199.36,-116 193.36,-113.9 193.36,-118.1"/>
</g>
<!-- client/src/data&#45;access/load.js -->
<g id="node10" class="node">
<title>client/src/data&#45;access/load.js</title>
<g id="a_node10"><a xlink:href="client/src/data-access/load.js" xlink:title="load.js">
<path fill="#ffffcc" stroke="black" d="M86.3,-111.3C86.3,-111.3 44.7,-111.3 44.7,-111.3 41.6,-111.3 38.5,-108.2 38.5,-105.1 38.5,-105.1 38.5,-98.9 38.5,-98.9 38.5,-95.8 41.6,-92.7 44.7,-92.7 44.7,-92.7 86.3,-92.7 86.3,-92.7 89.4,-92.7 92.5,-95.8 92.5,-98.9 92.5,-98.9 92.5,-105.1 92.5,-105.1 92.5,-108.2 89.4,-111.3 86.3,-111.3"/>
<text text-anchor="middle" x="65.5" y="-99.3" font-family="Helvetica,sans-Serif" font-size="9.00">load.js</text>
</a>
</g>
</g>
<!-- client/src/data&#45;access/load.js&#45;&gt;client/src/data&#45;access/local&#45;storage/state.js -->
<g id="edge14" class="edge">
<title>client/src/data&#45;access/load.js&#45;&gt;client/src/data&#45;access/local&#45;storage/state.js</title>
<path fill="none" stroke="#000000" stroke-width="2" stroke-opacity="0.200000" d="M92.36,-111.33C94.94,-113.18 97.25,-115.39 98.99,-118 114.1,-140.59 90.11,-218.71 106.99,-240 109.84,-243.59 113.66,-246.22 117.84,-248.14"/>
<polygon fill="#000000" fill-opacity="0.200000" stroke="#000000" stroke-width="2" stroke-opacity="0.200000" points="117.35,-250.2 123.71,-250.33 118.82,-246.26 117.35,-250.2"/>
</g>
<!-- client/src/data&#45;access/load.js&#45;&gt;client/src/data&#45;access/local&#45;storage/get&#45;item.js -->
<g id="edge11" class="edge">
<title>client/src/data&#45;access/load.js&#45;&gt;client/src/data&#45;access/local&#45;storage/get&#45;item.js</title>
<path fill="none" stroke="#000000" stroke-width="2" stroke-opacity="0.200000" d="M92.24,-111.42C94.84,-113.25 97.18,-115.43 98.99,-118 116.79,-143.23 90.63,-160.82 106.99,-187 129.29,-222.68 151.87,-214.46 186.75,-238 198.32,-245.81 211.1,-254.9 221.09,-262.11"/>
<polygon fill="#000000" fill-opacity="0.200000" stroke="#000000" stroke-width="2" stroke-opacity="0.200000" points="219.95,-263.88 226.05,-265.7 222.42,-260.48 219.95,-263.88"/>
</g>
<!-- client/src/data&#45;access/load.js&#45;&gt;client/src/data&#45;access/local&#45;storage/set&#45;item.js -->
<g id="edge13" class="edge">
<title>client/src/data&#45;access/load.js&#45;&gt;client/src/data&#45;access/local&#45;storage/set&#45;item.js</title>
<path fill="none" stroke="#000000" stroke-width="2" stroke-opacity="0.200000" d="M91.68,-111.38C94.44,-113.23 96.98,-115.42 98.99,-118 109.35,-131.26 95.01,-143.19 106.99,-155 132.75,-180.37 152.83,-158.49 186.75,-171 198.1,-175.19 209.94,-181.61 219.44,-187.34"/>
<polygon fill="#000000" fill-opacity="0.200000" stroke="#000000" stroke-width="2" stroke-opacity="0.200000" points="218.54,-189.25 224.75,-190.62 220.75,-185.68 218.54,-189.25"/>
</g>
<!-- lib/validate.js -->
<g id="node11" class="node">
<title>lib/validate.js</title>
<g id="a_node11"><a xlink:href="lib/validate.js" xlink:title="validate.js">
<polygon fill="#ffffcc" stroke="black" points="178.75,-34.3 177.2,-36.37 166.35,-36.37 164.8,-34.3 122.74,-34.3 122.74,-15.7 178.75,-15.7 178.75,-34.3"/>
<text text-anchor="middle" x="150.74" y="-22.3" font-family="Helvetica,sans-Serif" font-size="9.00">validate.js</text>
</a>
</g>
</g>
<!-- client/src/data&#45;access/load.js&#45;&gt;lib/validate.js -->
<g id="edge10" class="edge">
<title>client/src/data&#45;access/load.js&#45;&gt;lib/validate.js</title>
<path fill="none" stroke="#000000" stroke-width="2" stroke-opacity="0.200000" d="M76.7,-92.56C91.31,-79.05 118.25,-54.13 135.01,-38.63"/>
<polygon fill="#000000" fill-opacity="0.200000" stroke="#000000" stroke-width="2" stroke-opacity="0.200000" points="136.47,-40.13 139.45,-34.52 133.62,-37.05 136.47,-40.13"/>
</g>
<!-- client/src/data&#45;access/local&#45;storage/remove&#45;item.js -->
<g id="node12" class="node">
<title>client/src/data&#45;access/local&#45;storage/remove&#45;item.js</title>
<g id="a_node12"><a xlink:href="client/src/data-access/local-storage/remove-item.js" xlink:title="remove&#45;item.js">
<path fill="#ffffcc" stroke="black" d="M271.04,-240.3C271.04,-240.3 208.45,-240.3 208.45,-240.3 205.35,-240.3 202.25,-237.2 202.25,-234.1 202.25,-234.1 202.25,-227.9 202.25,-227.9 202.25,-224.8 205.35,-221.7 208.45,-221.7 208.45,-221.7 271.04,-221.7 271.04,-221.7 274.14,-221.7 277.24,-224.8 277.24,-227.9 277.24,-227.9 277.24,-234.1 277.24,-234.1 277.24,-237.2 274.14,-240.3 271.04,-240.3"/>
<text text-anchor="middle" x="239.74" y="-228.3" font-family="Helvetica,sans-Serif" font-size="9.00">remove&#45;item.js</text>
</a>
</g>
</g>
<!-- client/src/data&#45;access/load.js&#45;&gt;client/src/data&#45;access/local&#45;storage/remove&#45;item.js -->
<g id="edge12" class="edge">
<title>client/src/data&#45;access/load.js&#45;&gt;client/src/data&#45;access/local&#45;storage/remove&#45;item.js</title>
<path fill="none" stroke="#000000" stroke-width="2" stroke-opacity="0.200000" d="M92.12,-111.5C94.74,-113.32 97.12,-115.47 98.99,-118 112.13,-135.73 93.19,-149.78 106.99,-167 130.88,-196.8 156.11,-176.2 186.75,-199 194.04,-204.43 192.22,-209.55 199.49,-215 201.31,-216.36 203.26,-217.62 205.28,-218.79"/>
<polygon fill="#000000" fill-opacity="0.200000" stroke="#000000" stroke-width="2" stroke-opacity="0.200000" points="204.47,-220.74 210.76,-221.68 206.43,-217.03 204.47,-220.74"/>
</g>
<!-- client/src/data&#45;access/load.js&#45;&gt;client/src/data&#45;access/utils/is&#45;plain&#45;object.js -->
<g id="edge15" class="edge">
<title>client/src/data&#45;access/load.js&#45;&gt;client/src/data&#45;access/utils/is&#45;plain&#45;object.js</title>
<path fill="none" stroke="#000000" stroke-width="2" stroke-opacity="0.200000" d="M92.92,-99.54C117.38,-97.79 154.71,-96.47 186.75,-101 192.96,-101.88 199.46,-103.32 205.69,-104.97"/>
<polygon fill="#000000" fill-opacity="0.200000" stroke="#000000" stroke-width="2" stroke-opacity="0.200000" points="205.46,-107.08 211.8,-106.67 206.59,-103.04 205.46,-107.08"/>
</g>
<!-- client/src/data&#45;access/local&#45;storage/remove&#45;item.js&#45;&gt;client/src/data&#45;access/local&#45;storage/store.js -->
<g id="edge18" class="edge">
<title>client/src/data&#45;access/local&#45;storage/remove&#45;item.js&#45;&gt;client/src/data&#45;access/local&#45;storage/store.js</title>
<path fill="none" stroke="#000000" stroke-width="2" stroke-opacity="0.200000" d="M275.2,-240.33C280.07,-241.65 285.05,-243 289.87,-244.3"/>
<polygon fill="#000000" fill-opacity="0.200000" stroke="#000000" stroke-width="2" stroke-opacity="0.200000" points="289.53,-246.38 295.87,-245.93 290.62,-242.33 289.53,-246.38"/>
</g>
<!-- client/src/data&#45;access/local&#45;storage/clear.js -->
<g id="node14" class="node">
<title>client/src/data&#45;access/local&#45;storage/clear.js</title>
<g id="a_node14"><a xlink:href="client/src/data-access/local-storage/clear.js" xlink:title="clear.js">
<path fill="#ffffcc" stroke="black" d="M260.54,-315.3C260.54,-315.3 218.94,-315.3 218.94,-315.3 215.84,-315.3 212.74,-312.2 212.74,-309.1 212.74,-309.1 212.74,-302.9 212.74,-302.9 212.74,-299.8 215.84,-296.7 218.94,-296.7 218.94,-296.7 260.54,-296.7 260.54,-296.7 263.64,-296.7 266.74,-299.8 266.74,-302.9 266.74,-302.9 266.74,-309.1 266.74,-309.1 266.74,-312.2 263.64,-315.3 260.54,-315.3"/>
<text text-anchor="middle" x="239.74" y="-303.3" font-family="Helvetica,sans-Serif" font-size="9.00">clear.js</text>
</a>
</g>
</g>
<!-- client/src/data&#45;access/local&#45;storage/clear.js&#45;&gt;client/src/data&#45;access/local&#45;storage/store.js -->
<g id="edge16" class="edge">
<title>client/src/data&#45;access/local&#45;storage/clear.js&#45;&gt;client/src/data&#45;access/local&#45;storage/store.js</title>
<path fill="none" stroke="#000000" stroke-width="2" stroke-opacity="0.200000" d="M266.83,-299.74C274.03,-297.35 281.61,-294.16 287.99,-290 297.14,-284.04 305.47,-275.07 311.59,-267.45"/>
<polygon fill="#000000" fill-opacity="0.200000" stroke="#000000" stroke-width="2" stroke-opacity="0.200000" points="313.45,-268.48 315.46,-262.45 310.13,-265.91 313.45,-268.48"/>
</g>
<!-- client/src/data&#45;access/remove&#45;all.js -->
<g id="node16" class="node">
<title>client/src/data&#45;access/remove&#45;all.js</title>
<g id="a_node16"><a xlink:href="client/src/data-access/remove-all.js" xlink:title="remove&#45;all.js">
<path fill="#ffffcc" stroke="black" d="M92.79,-359.3C92.79,-359.3 38.2,-359.3 38.2,-359.3 35.1,-359.3 32,-356.2 32,-353.1 32,-353.1 32,-346.9 32,-346.9 32,-343.8 35.1,-340.7 38.2,-340.7 38.2,-340.7 92.79,-340.7 92.79,-340.7 95.89,-340.7 98.99,-343.8 98.99,-346.9 98.99,-346.9 98.99,-353.1 98.99,-353.1 98.99,-356.2 95.89,-359.3 92.79,-359.3"/>
<text text-anchor="middle" x="65.5" y="-347.3" font-family="Helvetica,sans-Serif" font-size="9.00">remove&#45;all.js</text>
</a>
</g>
</g>
<!-- client/src/data&#45;access/remove&#45;all.js&#45;&gt;client/src/data&#45;access/local&#45;storage/state.js -->
<g id="edge23" class="edge">
<title>client/src/data&#45;access/remove&#45;all.js&#45;&gt;client/src/data&#45;access/local&#45;storage/state.js</title>
<path fill="none" stroke="#000000" stroke-width="2" stroke-opacity="0.200000" d="M92.23,-340.58C94.83,-338.74 97.18,-336.57 98.99,-334 116.56,-309.15 87.47,-289.35 106.99,-266 109.87,-262.56 113.62,-260.02 117.71,-258.13"/>
<polygon fill="#000000" fill-opacity="0.200000" stroke="#000000" stroke-width="2" stroke-opacity="0.200000" points="118.58,-260.05 123.44,-255.95 117.09,-256.12 118.58,-260.05"/>
</g>
<!-- client/src/data&#45;access/remove&#45;all.js&#45;&gt;client/src/data&#45;access/local&#45;storage/clear.js -->
<g id="edge22" class="edge">
<title>client/src/data&#45;access/remove&#45;all.js&#45;&gt;client/src/data&#45;access/local&#45;storage/clear.js</title>
<path fill="none" stroke="#000000" stroke-width="2" stroke-opacity="0.200000" d="M99.3,-341.62C130.14,-333.74 176.01,-322.02 206.63,-314.2"/>
<polygon fill="#000000" fill-opacity="0.200000" stroke="#000000" stroke-width="2" stroke-opacity="0.200000" points="207.24,-316.21 212.54,-312.69 206.2,-312.14 207.24,-316.21"/>
</g>
<!-- client/src/data&#45;access/remove.js -->
<g id="node17" class="node">
<title>client/src/data&#45;access/remove.js</title>
<g id="a_node17"><a xlink:href="client/src/data-access/remove.js" xlink:title="remove.js">
<path fill="#ffffcc" stroke="black" d="M86.8,-204.3C86.8,-204.3 44.2,-204.3 44.2,-204.3 41.1,-204.3 38,-201.2 38,-198.1 38,-198.1 38,-191.9 38,-191.9 38,-188.8 41.1,-185.7 44.2,-185.7 44.2,-185.7 86.8,-185.7 86.8,-185.7 89.9,-185.7 93,-188.8 93,-191.9 93,-191.9 93,-198.1 93,-198.1 93,-201.2 89.9,-204.3 86.8,-204.3"/>
<text text-anchor="middle" x="65.5" y="-192.3" font-family="Helvetica,sans-Serif" font-size="9.00">remove.js</text>
</a>
</g>
</g>
<!-- client/src/data&#45;access/remove.js&#45;&gt;client/src/data&#45;access/local&#45;storage/state.js -->
<g id="edge25" class="edge">
<title>client/src/data&#45;access/remove.js&#45;&gt;client/src/data&#45;access/local&#45;storage/state.js</title>
<path fill="none" stroke="#000000" stroke-width="2" stroke-opacity="0.200000" d="M91.54,-204.49C94.33,-206.32 96.91,-208.48 98.99,-211 107.52,-221.3 97.66,-230.42 106.99,-240 110.04,-243.13 113.83,-245.52 117.87,-247.33"/>
<polygon fill="#000000" fill-opacity="0.200000" stroke="#000000" stroke-width="2" stroke-opacity="0.200000" points="117.14,-249.3 123.49,-249.46 118.63,-245.37 117.14,-249.3"/>
</g>
<!-- client/src/data&#45;access/remove.js&#45;&gt;client/src/data&#45;access/local&#45;storage/remove&#45;item.js -->
<g id="edge24" class="edge">
<title>client/src/data&#45;access/remove.js&#45;&gt;client/src/data&#45;access/local&#45;storage/remove&#45;item.js</title>
<path fill="none" stroke="#000000" stroke-width="2" stroke-opacity="0.200000" d="M93.06,-200.97C97.7,-201.99 102.49,-203.04 106.99,-204 136.69,-210.34 170.23,-217.21 196.03,-222.43"/>
<polygon fill="#000000" fill-opacity="0.200000" stroke="#000000" stroke-width="2" stroke-opacity="0.200000" points="195.78,-224.52 202.08,-223.66 196.61,-220.41 195.78,-224.52"/>
</g>
<!-- client/src/data&#45;access/save.js -->
<g id="node18" class="node">
<title>client/src/data&#45;access/save.js</title>
<g id="a_node18"><a xlink:href="client/src/data-access/save.js" xlink:title="save.js">
<path fill="#ffffcc" stroke="black" d="M86.3,-142.3C86.3,-142.3 44.7,-142.3 44.7,-142.3 41.6,-142.3 38.5,-139.2 38.5,-136.1 38.5,-136.1 38.5,-129.9 38.5,-129.9 38.5,-126.8 41.6,-123.7 44.7,-123.7 44.7,-123.7 86.3,-123.7 86.3,-123.7 89.4,-123.7 92.5,-126.8 92.5,-129.9 92.5,-129.9 92.5,-136.1 92.5,-136.1 92.5,-139.2 89.4,-142.3 86.3,-142.3"/>
<text text-anchor="middle" x="65.5" y="-130.3" font-family="Helvetica,sans-Serif" font-size="9.00">save.js</text>
</a>
</g>
</g>
<!-- client/src/data&#45;access/save.js&#45;&gt;client/src/data&#45;access/local&#45;storage/state.js -->
<g id="edge27" class="edge">
<title>client/src/data&#45;access/save.js&#45;&gt;client/src/data&#45;access/local&#45;storage/state.js</title>
<path fill="none" stroke="#000000" stroke-width="2" stroke-opacity="0.200000" d="M92.31,-142.37C94.89,-144.21 97.22,-146.41 98.99,-149 110.46,-165.75 94.2,-224.24 106.99,-240 109.82,-243.48 113.54,-246.05 117.62,-247.95"/>
<polygon fill="#000000" fill-opacity="0.200000" stroke="#000000" stroke-width="2" stroke-opacity="0.200000" points="116.99,-249.95 123.34,-250.13 118.49,-246.03 116.99,-249.95"/>
</g>
<!-- client/src/data&#45;access/save.js&#45;&gt;client/src/data&#45;access/local&#45;storage/set&#45;item.js -->
<g id="edge26" class="edge">
<title>client/src/data&#45;access/save.js&#45;&gt;client/src/data&#45;access/local&#45;storage/set&#45;item.js</title>
<path fill="none" stroke="#000000" stroke-width="2" stroke-opacity="0.200000" d="M90.43,-142.49C93.54,-144.36 96.5,-146.52 98.99,-149 104.63,-154.6 100.83,-159.98 106.99,-165 121.94,-177.17 171.19,-188.02 205.05,-194.31"/>
<polygon fill="#000000" fill-opacity="0.200000" stroke="#000000" stroke-width="2" stroke-opacity="0.200000" points="204.9,-196.41 211.18,-195.42 205.66,-192.28 204.9,-196.41"/>
</g>
<!-- client/src/data&#45;access/save.js&#45;&gt;client/src/data&#45;access/utils/is&#45;json&#45;data.js -->
<g id="edge28" class="edge">
<title>client/src/data&#45;access/save.js&#45;&gt;client/src/data&#45;access/utils/is&#45;json&#45;data.js</title>
<path fill="none" stroke="#000000" stroke-width="2" stroke-opacity="0.200000" d="M92.84,-127.62C98.01,-126.56 103.56,-125.43 109.08,-124.3"/>
<polygon fill="#000000" fill-opacity="0.200000" stroke="#000000" stroke-width="2" stroke-opacity="0.200000" points="109.58,-126.34 115.04,-123.09 108.74,-122.23 109.58,-126.34"/>
</g>
</g>
</svg>
